<svg width="126" height="126" viewBox="0 0 126 126" fill="none" xmlns="http://www.w3.org/2000/svg">
<path d="M28.1903 75.0734C27.6072 64.3053 24.431 61.4835 24.486 60.9341C24.5409 60.3847 51.693 37.7169 70.0647 48.7925C92.0062 62.0203 97.8639 73.57 97.8639 95.326C97.8639 104.355 93.5994 118.126 59.7019 119.994C16.2189 122.39 28.7735 85.8415 28.1903 75.0734Z" fill="#363636"/>
<mask id="mask0_3451_608" style="mask-type:alpha" maskUnits="userSpaceOnUse" x="24" y="45" width="74" height="76">
<path d="M32.486 74.2843C31.9028 63.5162 24.4307 61.4835 24.4857 60.9341C24.5406 60.3847 51.6927 37.7169 70.0644 48.7925C92.0059 62.0203 97.8636 73.57 97.8636 95.326C97.8636 104.355 93.5991 118.126 59.7016 119.994C16.2185 122.39 33.0692 85.0524 32.486 74.2843Z" fill="#363636"/>
</mask>
<g mask="url(#mask0_3451_608)">
<ellipse cx="51.4327" cy="53.122" rx="24.5296" ry="32.2757" transform="rotate(-11.6863 51.4327 53.122)" fill="#DDDDDD"/>
</g>
<path d="M101.202 92.5658C100.268 101.246 93.7849 106.569 90.5071 107.794C86.1606 109.36 83.5281 113.104 84.6647 114.761C108.058 111.71 110.611 90.1815 111.311 82.4021C112.011 74.6227 117.699 72.4332 118.25 69.2926C118.69 66.7802 118.005 65.2803 117.354 65.0413C105.484 56.5928 102.417 81.2741 101.202 92.5658Z" fill="#363636"/>
<path d="M118.25 69.2925C118.691 66.7801 118.005 65.2802 117.355 65.0412C108.77 58.9312 104.79 70.1487 102.785 81.0979C105.999 79.0323 109.808 81.1066 111.311 82.4019C112.011 74.6225 117.7 72.433 118.25 69.2925Z" fill="white"/>
<path d="M56.123 1.09766C57.4352 -0.466253 59.9639 0.0902632 60.498 2.06055L64.3545 16.293C73.6477 21.3178 80.6971 29.7014 81.2939 38.5732C82.2869 53.3329 65.0475 63.8504 47.7129 65.0166C30.3783 66.1828 14.9862 60.4198 13.9932 45.6602C13.554 39.1317 16.0069 31.9375 20.3779 25.8418C20.1955 25.4913 20.0916 25.0888 20.0957 24.6523L20.2588 7.42285C20.2792 5.25703 22.8361 4.11853 24.459 5.55273L34.1973 14.1611C37.3002 12.7216 40.637 11.8015 44.1172 11.5674C45.2004 11.4945 46.2895 11.4788 47.3799 11.5166L56.123 1.09766Z" fill="#363636"/>
<mask id="mask1_3451_608" style="mask-type:alpha" maskUnits="userSpaceOnUse" x="13" y="0" width="69" height="66">
<path d="M56.123 1.09839C57.4352 -0.465522 59.9639 0.0909928 60.498 2.06128L64.3545 16.2947C73.6471 21.3196 80.6961 29.7025 81.293 38.574C82.286 53.3336 65.0466 63.8511 47.7119 65.0173C30.3773 66.1836 14.9852 60.4205 13.9922 45.6609C13.553 39.1322 16.0057 31.9374 20.377 25.8416C20.1949 25.4913 20.0916 25.089 20.0957 24.6531L20.2588 7.42358C20.2792 5.25776 22.8361 4.11927 24.459 5.55347L34.1963 14.1609C37.2991 12.7215 40.6362 11.8022 44.1162 11.5681C45.1998 11.4952 46.2892 11.4795 47.3799 11.5173L56.123 1.09839Z" fill="#D9D9D9"/>
</mask>
<g mask="url(#mask1_3451_608)">
<path d="M50.3602 34.8468C50.8283 35.7225 51.7582 36.2449 52.7511 36.2417C67.0508 36.1945 78.8802 43.7466 80.1494 54.4016C81.5568 66.2172 69.4452 77.3742 53.0977 79.3215C36.7502 81.2688 22.3567 73.2689 20.9492 61.4534C19.8556 52.2724 26.9245 43.4895 37.8003 39.1154C38.6949 38.7557 39.3525 37.9603 39.4848 37.0052L40.8702 26.9995C41.2133 24.522 44.5262 23.9307 45.7051 26.1366L50.3602 34.8468Z" fill="white"/>
<ellipse cx="63.5002" cy="5.9064" rx="6.89135" ry="10.207" transform="rotate(4.67096 63.5002 5.9064)" fill="#EAD2CC"/>
<ellipse cx="17.6677" cy="14.4584" rx="6.89135" ry="10.8558" transform="rotate(9.55904 17.6677 14.4584)" fill="#EAD2CC"/>
<path d="M47.4706 41.2574C47.0185 41.3517 46.5844 41.3034 46.2065 41.0205C46.0303 40.8886 45.9536 40.9089 45.8549 41.0981C45.5831 41.6185 45.1296 41.8813 44.5581 41.9503C43.9489 42.0236 43.2351 41.431 43.4114 40.9157C43.4685 40.7492 43.5519 40.6609 43.709 40.6382C43.8758 40.6139 43.9907 40.7018 44.0714 40.843C44.2457 41.1473 44.5114 41.2545 44.8061 41.1481C45.0686 41.0534 45.3026 40.7119 45.2212 40.3699C45.123 39.9573 45.3115 39.6866 45.7399 39.6168C46.1512 39.5499 46.3958 39.7345 46.4479 40.1511C46.4835 40.4349 47.1571 40.6758 47.4119 40.4851C47.5782 40.3608 47.7223 40.198 47.7108 39.9739C47.6984 39.7262 47.8197 39.5799 48.0405 39.5947C48.281 39.6109 48.4365 39.7729 48.4495 40.0405C48.4813 40.6899 48.0699 41.1193 47.4701 41.2579L47.4706 41.2574Z" fill="#C5978B"/>
<path d="M46.2366 39.5178C46.0105 39.9049 45.5026 40.0174 45.1342 39.762L42.5162 37.9466C42.0225 37.6043 42.0954 36.8542 42.6563 36.6389C44.2682 36.02 45.5313 35.7564 47.1563 35.6438C47.7573 35.6021 48.1432 36.2536 47.8394 36.7739L46.2366 39.5178Z" fill="#FF9191"/>
<path d="M36.4842 36.459C36.1328 39.7599 33.1021 40.6961 30.1741 40.9668C26.5925 41.298 22.7856 38.5864 24.1849 34.2921C24.987 31.3036 28.0954 28.4624 30.9631 28.7536C33.8309 29.0447 36.8158 33.1932 36.4842 36.459Z" fill="white"/>
<ellipse cx="4.83394" cy="4.65321" rx="4.83394" ry="4.65321" transform="matrix(-0.866519 0.499144 0.499144 0.866519 32.7549 28.8464)" fill="black"/>
<ellipse cx="1.34087" cy="1.29074" rx="1.34087" ry="1.29074" transform="matrix(-0.866519 0.499144 0.499144 0.866519 33.6621 31.7065)" fill="white"/>
<path d="M63.9717 27.9458C65.3982 30.9432 63.3045 33.326 60.9503 35.0879C58.0706 37.243 53.4077 36.9224 52.3549 32.5302C51.4759 29.5635 52.6397 25.5163 55.2363 24.2649C57.833 23.0135 62.5466 24.9887 63.9717 27.9458Z" fill="white"/>
<ellipse cx="4.83394" cy="4.65321" rx="4.83394" ry="4.65321" transform="matrix(-0.866519 0.499144 0.499144 0.866519 59.5352 24.2412)" fill="black"/>
<ellipse cx="1.34087" cy="1.29074" rx="1.34087" ry="1.29074" transform="matrix(-0.866519 0.499144 0.499144 0.866519 60.4424 27.1013)" fill="white"/>
</g>
<path d="M28.9518 48.1861C28.9574 48.1689 28.963 48.1517 28.9686 48.1345C28.9701 48.1261 28.9742 48.1173 28.9756 48.1089C29.094 47.7368 29.1218 47.3479 29.0617 46.9418C28.9839 46.5465 28.9062 46.1512 28.829 45.7585C28.6493 45.3973 28.4696 45.036 28.2899 44.6747C28.2864 44.6698 28.2829 44.6648 28.279 44.6572C28.2719 44.6473 28.2653 44.6401 28.261 44.6298C28.0191 44.2749 27.8055 43.9787 27.4105 43.6653L26.3961 42.9923L25.2454 42.5931C24.6163 42.4368 23.9989 42.4454 23.3902 42.6164C22.7457 42.6808 22.1564 42.9062 21.6219 43.2902C21.3144 43.5591 21.0068 43.8279 20.6992 44.0968C20.4758 44.4298 20.2497 44.7631 20.0266 45.0987C19.7271 45.6503 19.5779 46.2317 19.5879 46.8471C19.5039 47.2633 19.529 47.6745 19.6657 48.0776C19.7345 48.7171 19.9654 49.3029 20.3558 49.8353L21.1747 50.7553C21.6371 51.1843 22.1661 51.4753 22.7644 51.6279C23.1395 51.8131 23.537 51.8941 23.9546 51.8739C24.5867 51.9779 25.2092 51.914 25.8227 51.685C26.2039 51.5009 26.5847 51.3141 26.9659 51.13C27.2735 50.8611 27.5811 50.5923 27.8886 50.3234C28.4302 49.7009 28.7846 48.9885 28.9568 48.1827L28.9518 48.1861Z" fill="#EAD2CC"/>
<path d="M70.6478 42.8086C70.684 42.776 70.7206 42.7461 70.7537 42.7112C71.244 42.1481 71.5671 41.5003 71.7209 40.7709C71.8592 40.2075 71.8497 39.6493 71.6908 39.1021C71.6284 38.5217 71.4196 37.99 71.0643 37.5071C70.6353 36.8848 70.0823 36.4035 69.4027 36.0636C69.3579 36.0401 69.3103 36.0171 69.2631 35.9967C68.906 35.8743 68.5511 35.7489 68.1939 35.6265C67.8127 35.5977 67.4312 35.5662 67.05 35.5374C66.6626 35.6105 66.2752 35.6836 65.8878 35.7568C65.5349 35.9285 65.1794 36.1007 64.8265 36.2725C64.5406 36.5218 64.2548 36.7711 63.9693 37.023C63.7614 37.3319 63.5539 37.6434 63.3433 37.9527C63.2221 38.3061 63.0977 38.6573 62.9765 39.0108C62.8322 39.5888 62.8437 40.1603 63.0074 40.7204C63.0336 41.1205 63.1595 41.4897 63.3847 41.8252C63.5141 42.1992 63.7283 42.5172 64.0274 42.7792C64.2474 43.099 64.5301 43.3442 64.879 43.5197C65.171 43.7717 65.507 43.9354 65.8853 44.0165C66.2338 44.1892 66.6027 44.2635 66.9903 44.245C67.382 44.3241 67.7665 44.3032 68.1434 44.1798C68.5467 44.1562 68.9182 44.0336 69.2551 43.8123C69.803 43.6038 70.2653 43.2686 70.6416 42.8041L70.6478 42.8086Z" fill="#EAD2CC"/>
<path d="M25.9319 43.5799C21.0725 42.9468 16.1598 42.8045 11.2777 43.1626C10.6032 43.2123 9.93266 43.2697 9.26108 43.3381C8.59218 43.4061 7.84883 43.4196 7.21587 43.6488C7.0882 43.6948 7.07633 43.9203 7.23273 43.9356C7.80435 43.9855 8.39381 43.8664 8.96195 43.8049C9.56775 43.738 10.1744 43.6764 10.7826 43.6254C11.9768 43.5213 13.1706 43.45 14.3685 43.4055C16.8055 43.3157 19.2476 43.348 21.6824 43.4932C23.0814 43.5747 24.4815 43.6997 25.874 43.864C26.0563 43.8864 26.1176 43.6073 25.9327 43.5852L25.9319 43.5799Z" fill="black"/>
<path d="M27.5035 45.8713C24.7576 46.1155 22.0209 46.5794 19.3208 47.1198C16.5857 47.6654 13.8785 48.3378 11.2056 49.1253C9.68522 49.5747 8.13586 50.0147 6.66776 50.6065C6.47615 50.6837 6.50934 51.0227 6.74293 50.9857C6.95542 50.9545 7.16936 50.915 7.38102 50.8785C7.58192 50.8436 7.57686 50.5442 7.36148 50.5566C7.1461 50.5691 6.93342 50.5812 6.71845 50.5963C6.74365 50.7236 6.76884 50.8509 6.79362 50.9755C8.10524 50.5813 9.39331 50.106 10.7041 49.7064C12.0356 49.2984 13.3774 48.9216 14.7265 48.5738C17.4084 47.8805 20.1212 47.2973 22.8529 46.8368C24.4049 46.5738 25.9624 46.3646 27.521 46.1444C27.6932 46.1191 27.6827 45.856 27.5062 45.8709L27.5035 45.8713Z" fill="black"/>
<path d="M27.679 48.8663C25.203 49.4502 22.7807 50.3101 20.4179 51.2349C18.0709 52.1547 15.7741 53.2036 13.538 54.3609C12.8988 54.692 12.264 55.0334 11.6335 55.385C11.0489 55.7136 10.3733 56.0227 9.88717 56.4897C9.78203 56.5924 9.91272 56.7615 10.0412 56.7209C10.6123 56.5362 11.1344 56.1595 11.6532 55.8679C12.1899 55.5682 12.724 55.2689 13.2678 54.979C14.3906 54.3779 15.5291 53.8071 16.686 53.2664C18.9714 52.1974 21.3135 51.2456 23.6996 50.4183C25.0439 49.9511 26.4027 49.5418 27.7569 49.1032C27.9115 49.0533 27.8303 48.8305 27.6763 48.8667L27.679 48.8663Z" fill="black"/>
<path d="M63.3235 39.0198C65.7564 38.1392 68.1627 37.2107 70.6439 36.465C73.1437 35.7138 75.6785 35.083 78.2408 34.5764C78.9747 34.4307 79.7133 34.2978 80.4532 34.173C81.1585 34.056 81.887 33.982 82.5767 33.799C82.7616 33.7501 82.6945 33.4761 82.5137 33.4808C81.8611 33.4945 81.1999 33.6297 80.5587 33.7346C79.9336 33.8371 79.3102 33.9503 78.6877 34.0689C77.4156 34.3099 76.1485 34.5829 74.8918 34.8872C72.354 35.4993 69.8461 36.2326 67.3848 37.0901C65.978 37.5801 64.5718 38.0918 63.2187 38.7159C63.0364 38.7999 63.1226 39.0902 63.3235 39.0198Z" fill="black"/>
<path d="M63.835 41.3434C69.0578 40.324 74.2842 39.4351 79.5905 38.9383C81.0926 38.7973 82.5976 38.7104 84.0999 38.5884C84.3717 38.5677 84.3493 38.1561 84.0758 38.1662C81.4058 38.2792 78.7286 38.5762 76.0781 38.9046C73.4193 39.2316 70.7736 39.644 68.143 40.136C66.67 40.412 65.2004 40.7093 63.742 41.0623C63.554 41.1089 63.6557 41.3751 63.8373 41.3403L63.835 41.3434Z" fill="black"/>
<path d="M63.3753 43.0794C68.4215 42.5554 73.5035 42.5118 78.553 43.1116C79.9821 43.2814 81.3945 43.5738 82.8199 43.7551C83.078 43.7882 83.1589 43.4216 82.9019 43.3611C81.6566 43.0633 80.3491 42.9329 79.0795 42.7806C77.8465 42.6339 76.6108 42.523 75.3746 42.445C72.825 42.2865 70.2654 42.2769 67.719 42.4237C66.2606 42.5092 64.81 42.6454 63.3636 42.8437C63.2157 42.8654 63.2261 43.0931 63.3776 43.0764L63.3753 43.0794Z" fill="black"/>
<ellipse cx="40.2102" cy="106.966" rx="9.01003" ry="16.0357" transform="rotate(-15.0909 40.2102 106.966)" fill="#363636"/>
<mask id="mask2_3451_608" style="mask-type:alpha" maskUnits="userSpaceOnUse" x="30" y="91" width="20" height="32">
<ellipse cx="40.2102" cy="106.966" rx="9.01003" ry="16.0357" transform="rotate(-15.0909 40.2102 106.966)" fill="#363636"/>
</mask>
<g mask="url(#mask2_3451_608)">
<ellipse cx="43.2244" cy="118.143" rx="9.01003" ry="4.45875" transform="rotate(-15.0909 43.2244 118.143)" fill="white"/>
</g>
<ellipse cx="9.01003" cy="16.0357" rx="9.01003" ry="16.0357" transform="matrix(-0.965514 -0.260352 -0.260352 0.965514 77.6084 93.8291)" fill="#363636"/>
<mask id="mask3_3451_608" style="mask-type:alpha" maskUnits="userSpaceOnUse" x="55" y="91" width="20" height="32">
<ellipse cx="9.01003" cy="16.0357" rx="9.01003" ry="16.0357" transform="matrix(-0.965514 -0.260352 -0.260352 0.965514 77.6084 93.8291)" fill="#363636"/>
</mask>
<g mask="url(#mask3_3451_608)">
<ellipse cx="9.01003" cy="4.45875" rx="9.01003" ry="4.45875" transform="matrix(-0.965514 -0.260352 -0.260352 0.965514 71.5801 116.184)" fill="white"/>
</g>
</svg>
