<svg width="112" height="123" viewBox="0 0 112 123" fill="none" xmlns="http://www.w3.org/2000/svg">
<path d="M21.677 74.9827C21.0931 64.1998 17.9126 61.3741 17.9676 60.824C18.0226 60.2738 45.2119 37.5749 63.6088 48.6658C85.5803 61.9117 91.4462 73.4772 91.4462 95.2631C91.4462 104.305 87.1758 118.094 53.2318 119.964C9.68915 122.364 22.261 85.7655 21.677 74.9827Z" fill="#363636"/>
<mask id="mask0_3451_610" style="mask-type:alpha" maskUnits="userSpaceOnUse" x="17" y="45" width="75" height="76">
<path d="M25.9786 74.1925C25.3946 63.4097 17.9123 61.3741 17.9673 60.824C18.0223 60.2738 45.2116 37.5749 63.6085 48.6658C85.58 61.9116 91.4458 73.4772 91.4458 95.2631C91.4458 104.305 87.1755 118.094 53.2315 119.964C9.68883 122.364 26.5626 84.9754 25.9786 74.1925Z" fill="#363636"/>
</mask>
<g mask="url(#mask0_3451_610)">
<ellipse cx="44.9512" cy="53.0012" rx="24.5632" ry="32.32" transform="rotate(-11.6863 44.9512 53.0012)" fill="#DDDDDD"/>
</g>
<path d="M94.7889 92.4991C93.8537 101.191 87.3615 106.522 84.0792 107.748C79.7268 109.316 77.0907 113.066 78.2288 114.725C101.654 111.669 104.21 90.1115 104.911 82.3214C105.612 74.5314 111.309 72.3388 111.86 69.194C112.301 66.6781 111.615 65.1762 110.963 64.9369C99.0762 56.4768 96.0054 81.1919 94.7889 92.4991Z" fill="#363636"/>
<path d="M111.86 69.1939C112.301 66.678 111.615 65.176 110.964 64.9367C102.367 58.8184 98.3815 70.0512 96.3736 81.0154C99.5926 78.947 103.407 81.0241 104.912 82.3213C105.613 74.5312 111.309 72.3387 111.86 69.1939Z" fill="white"/>
<path d="M49.648 0.905536C50.962 -0.660517 53.4942 -0.103237 54.029 1.86975L57.8908 16.1217C67.1967 21.1534 74.2557 29.5485 74.8534 38.4325C75.8478 53.2124 58.5848 63.7443 41.2264 64.9121C23.868 66.0799 8.45477 60.309 7.46041 45.5291C7.02067 38.9917 9.47695 31.7876 13.8539 25.6836C13.6712 25.3326 13.5672 24.9296 13.5713 24.4925L13.7346 7.2394C13.7551 5.07061 16.3154 3.93055 17.9406 5.36672L27.6922 13.9869C30.7994 12.5455 34.1408 11.6241 37.6257 11.3896C38.7104 11.3166 39.8011 11.301 40.8929 11.3388L49.648 0.905536Z" fill="#363636"/>
<mask id="mask1_3451_610" style="mask-type:alpha" maskUnits="userSpaceOnUse" x="7" y="0" width="68" height="66">
<path d="M49.648 0.90627C50.962 -0.659784 53.4942 -0.102507 54.029 1.87048L57.8908 16.1234C67.1961 21.1552 74.2548 29.5496 74.8525 38.4332C75.8468 53.2131 58.5838 63.745 41.2254 64.9128C23.867 66.0807 8.45379 60.3097 7.45943 45.5299C7.01967 38.9922 9.47566 31.7876 13.8529 25.6834C13.6706 25.3326 13.5672 24.9298 13.5713 24.4932L13.7346 7.24014C13.7551 5.07135 16.3154 3.93129 17.9406 5.36746L27.6912 13.9867C30.7983 12.5453 34.14 11.6248 37.6247 11.3903C38.7098 11.3174 39.8007 11.3016 40.8929 11.3395L49.648 0.90627Z" fill="#D9D9D9"/>
</mask>
<g mask="url(#mask1_3451_610)">
<path d="M43.8773 34.7009C44.346 35.5778 45.2772 36.101 46.2715 36.0977C60.5907 36.0505 72.4364 43.613 73.7073 54.2826C75.1167 66.1143 62.9884 77.2867 46.6185 79.2366C30.2486 81.1866 15.8354 73.1757 14.426 61.344C13.3309 52.1505 20.4094 43.3555 31.3002 38.9754C32.196 38.6152 32.8545 37.8187 32.987 36.8623L34.3743 26.8429C34.7178 24.362 38.0353 23.7699 39.2158 25.9788L43.8773 34.7009Z" fill="white"/>
<ellipse cx="57.0353" cy="5.72087" rx="6.9008" ry="10.221" transform="rotate(4.67096 57.0353 5.72087)" fill="#EAD2CC"/>
<ellipse cx="11.14" cy="14.2846" rx="6.9008" ry="10.8707" transform="rotate(9.55904 11.14 14.2846)" fill="#EAD2CC"/>
<path d="M40.9837 41.1203C40.531 41.2147 40.0963 41.1664 39.7179 40.8831C39.5414 40.7511 39.4646 40.7713 39.3658 40.9608C39.0936 41.4819 38.6395 41.7451 38.0672 41.8142C37.4572 41.8876 36.7425 41.2942 36.919 40.7782C36.9761 40.6115 37.0596 40.523 37.217 40.5003C37.384 40.4759 37.4991 40.564 37.5799 40.7053C37.7544 41.0101 38.0205 41.1174 38.3155 41.0109C38.5785 40.916 38.8128 40.5741 38.7312 40.2316C38.6329 39.8185 38.8217 39.5474 39.2507 39.4775C39.6626 39.4105 39.9075 39.5953 39.9596 40.0125C39.9953 40.2967 40.6698 40.5379 40.9249 40.347C41.0915 40.2225 41.2358 40.0595 41.2243 39.8351C41.2119 39.587 41.3333 39.4405 41.5544 39.4554C41.7952 39.4716 41.9509 39.6338 41.964 39.9018C41.9958 40.5521 41.5838 40.9821 40.9832 41.1208L40.9837 41.1203Z" fill="#C5978B"/>
<path d="M39.748 39.3784C39.5216 39.766 39.013 39.8786 38.6441 39.6228L36.0225 37.805C35.5282 37.4622 35.6012 36.7111 36.1628 36.4955C37.777 35.8758 39.0418 35.6118 40.669 35.499C41.2709 35.4573 41.6573 36.1097 41.353 36.6307L39.748 39.3784Z" fill="#FF9191"/>
<path d="M29.9823 36.3153C29.6304 39.6208 26.5955 40.5583 23.6635 40.8294C20.0771 41.161 16.2649 38.4457 17.6662 34.1455C18.4693 31.1529 21.5819 28.3078 24.4536 28.5994C27.3253 28.8909 30.3143 33.045 29.9823 36.3153Z" fill="white"/>
<ellipse cx="4.83394" cy="4.65321" rx="4.83394" ry="4.65321" transform="matrix(-0.867707 0.499828 0.499828 0.867707 26.2478 28.6924)" fill="black"/>
<ellipse cx="1.34087" cy="1.29074" rx="1.34087" ry="1.29074" transform="matrix(-0.867707 0.499828 0.499828 0.867707 27.1563 31.5564)" fill="white"/>
<path d="M57.5074 27.7905C58.9359 30.792 56.8393 33.1781 54.4819 34.9424C51.5982 37.1005 46.9289 36.7794 45.8747 32.3812C44.9945 29.4104 46.1599 25.3577 48.7601 24.1045C51.3604 22.8514 56.0804 24.8293 57.5074 27.7905Z" fill="white"/>
<ellipse cx="4.83394" cy="4.65321" rx="4.83394" ry="4.65321" transform="matrix(-0.867707 0.499828 0.499828 0.867707 53.0648 24.0808)" fill="black"/>
<ellipse cx="1.34087" cy="1.29074" rx="1.34087" ry="1.29074" transform="matrix(-0.867707 0.499828 0.499828 0.867707 53.9733 26.9448)" fill="white"/>
</g>
<path d="M22.4396 48.0585C22.4452 48.0413 22.4508 48.0241 22.4564 48.0069C22.4578 47.9985 22.462 47.9897 22.4634 47.9813C22.5819 47.6086 22.6098 47.2191 22.5496 46.8125C22.4717 46.4167 22.3939 46.0208 22.3165 45.6276C22.1366 45.2659 21.9567 44.9041 21.7768 44.5423C21.7733 44.5374 21.7697 44.5324 21.7658 44.5248C21.7588 44.5149 21.7521 44.5077 21.7478 44.4974C21.5055 44.142 21.2916 43.8454 20.8961 43.5316L19.8803 42.8576L18.7281 42.4579C18.0981 42.3014 17.4799 42.3099 16.8703 42.4812C16.225 42.5456 15.6349 42.7714 15.0996 43.1559C14.7916 43.4252 14.4836 43.6944 14.1756 43.9636C13.9519 44.297 13.7255 44.6308 13.5022 44.9669C13.2022 45.5192 13.0528 46.1014 13.0628 46.7176C12.9787 47.1345 13.0039 47.5462 13.1407 47.9498C13.2096 48.5903 13.4408 49.1768 13.8318 49.71L14.6518 50.6312C15.1148 51.0608 15.6445 51.3523 16.2437 51.505C16.6193 51.6905 17.0174 51.7716 17.4355 51.7514C18.0684 51.8555 18.6918 51.7915 19.3061 51.5622C19.6879 51.3778 20.0692 51.1908 20.4509 51.0064C20.7589 50.7372 21.0669 50.468 21.3749 50.1988C21.9172 49.5754 22.2721 48.862 22.4446 48.0551L22.4396 48.0585Z" fill="#EAD2CC"/>
<path d="M64.1927 42.6737C64.229 42.641 64.2656 42.6111 64.2988 42.5761C64.7897 42.0123 65.1133 41.3636 65.2673 40.6331C65.4057 40.069 65.3963 39.51 65.2371 38.9621C65.1747 38.3809 64.9656 37.8485 64.6098 37.3649C64.1802 36.7417 63.6264 36.2598 62.9459 35.9194C62.901 35.8959 62.8534 35.8728 62.8061 35.8524C62.4485 35.7299 62.0931 35.6042 61.7355 35.4817C61.3538 35.4529 60.9717 35.4214 60.59 35.3925C60.202 35.4657 59.8141 35.5389 59.4262 35.6121C59.0728 35.7842 58.7168 35.9566 58.3634 36.1286C58.0772 36.3782 57.7909 36.6278 57.5051 36.8802C57.2969 37.1894 57.0891 37.5014 56.8782 37.8111C56.7568 38.165 56.6323 38.5167 56.5109 38.8707C56.3664 39.4494 56.3779 40.0217 56.5419 40.5826C56.5681 40.9833 56.6942 41.3529 56.9197 41.6889C57.0493 42.0635 57.2638 42.3819 57.5632 42.6442C57.7835 42.9645 58.0666 43.21 58.416 43.3857C58.7084 43.6381 59.0449 43.802 59.4237 43.8832C59.7726 44.0562 60.1421 44.1305 60.5302 44.112C60.9225 44.1912 61.3075 44.1703 61.6848 44.0467C62.0887 44.0231 62.4607 43.9003 62.7981 43.6787C63.3468 43.4699 63.8097 43.1343 64.1865 42.6691L64.1927 42.6737Z" fill="#EAD2CC"/>
<path d="M19.4155 43.446C14.5494 42.812 9.62998 42.6696 4.74121 43.0281C4.06581 43.078 3.39434 43.1354 2.72183 43.2039C2.05202 43.272 1.30765 43.2855 0.673824 43.515C0.545981 43.5611 0.53409 43.7869 0.690707 43.8022C1.26311 43.8522 1.85338 43.7329 2.4223 43.6714C3.02892 43.6043 3.63638 43.5426 4.24548 43.4916C5.44132 43.3874 6.63673 43.316 7.83627 43.2713C10.2766 43.1814 12.722 43.2138 15.1602 43.3592C16.5611 43.4408 17.9632 43.566 19.3576 43.7305C19.5401 43.7529 19.6015 43.4734 19.4163 43.4514L19.4155 43.446Z" fill="black"/>
<path d="M20.9893 45.7406C18.2396 45.9851 15.4991 46.4497 12.7953 46.9908C10.0565 47.5371 7.3456 48.2105 4.66904 48.999C3.14656 49.449 1.59508 49.8896 0.124964 50.4822C-0.0669074 50.5595 -0.0336776 50.899 0.200235 50.8619C0.413014 50.8308 0.627246 50.7912 0.839198 50.7546C1.04038 50.7197 1.03531 50.4198 0.819635 50.4323C0.603963 50.4448 0.390984 50.4569 0.175725 50.472C0.200953 50.5995 0.226182 50.727 0.250996 50.8518C1.56442 50.457 2.85425 49.981 4.16684 49.5809C5.50015 49.1724 6.84381 48.795 8.19471 48.4467C10.8804 47.7525 13.5968 47.1685 16.3323 46.7074C17.8864 46.4441 19.4461 46.2346 21.0068 46.014C21.1792 45.9887 21.1687 45.7252 20.992 45.7402L20.9893 45.7406Z" fill="black"/>
<path d="M21.165 48.7397C18.6856 49.3244 16.26 50.1855 13.894 51.1116C11.5437 52.0326 9.24374 53.0829 7.00465 54.2418C6.36458 54.5734 5.72886 54.9152 5.09749 55.2673C4.51211 55.5963 3.83559 55.9059 3.34878 56.3735C3.2435 56.4764 3.37438 56.6457 3.50304 56.605C4.0749 56.4201 4.59772 56.0429 5.1172 55.7509C5.65471 55.4507 6.18952 55.151 6.73407 54.8608C7.85839 54.2588 8.99844 53.6873 10.1569 53.1458C12.4455 52.0753 14.7908 51.1222 17.1802 50.2938C18.5263 49.826 19.887 49.4161 21.243 48.9769C21.3978 48.9269 21.3165 48.7038 21.1623 48.7401L21.165 48.7397Z" fill="black"/>
<path d="M56.8583 38.8797C59.2946 37.9979 61.7042 37.0681 64.1889 36.3213C66.692 35.5691 69.2303 34.9375 71.7961 34.4302C72.531 34.2842 73.2707 34.1512 74.0116 34.0262C74.7179 33.9091 75.4473 33.8349 76.1379 33.6517C76.3231 33.6027 76.2559 33.3284 76.0748 33.333C75.4214 33.3468 74.7592 33.4822 74.1172 33.5872C73.4913 33.6899 72.867 33.8032 72.2436 33.9219C70.9698 34.1633 69.701 34.4367 68.4425 34.7414C65.9013 35.3544 63.3899 36.0887 60.9252 36.9473C59.5165 37.438 58.1083 37.9504 56.7534 38.5753C56.5709 38.6595 56.6571 38.9501 56.8583 38.8797Z" fill="black"/>
<path d="M57.3706 41.2064C62.6005 40.1856 67.8341 39.2955 73.1477 38.7981C74.6518 38.6568 76.1589 38.5698 77.6632 38.4477C77.9354 38.4269 77.913 38.0148 77.6391 38.0249C74.9655 38.1381 72.2845 38.4354 69.6305 38.7643C66.968 39.0918 64.3187 39.5047 61.6845 39.9974C60.2095 40.2738 58.7378 40.5715 57.2775 40.9249C57.0892 40.9717 57.191 41.2382 57.3729 41.2033L57.3706 41.2064Z" fill="black"/>
<path d="M56.9102 42.9449C61.9634 42.4201 67.0523 42.3765 72.1088 42.9771C73.5398 43.1472 74.9541 43.4399 76.3815 43.6215C76.64 43.6546 76.7209 43.2875 76.4636 43.2269C75.2166 42.9287 73.9073 42.7982 72.6359 42.6457C71.4012 42.4987 70.1639 42.3877 68.926 42.3095C66.3729 42.1509 63.8098 42.1413 61.2599 42.2882C59.7995 42.3738 58.3469 42.5102 56.8985 42.7088C56.7504 42.7306 56.7609 42.9586 56.9125 42.9418L56.9102 42.9449Z" fill="black"/>
<ellipse cx="33.7134" cy="106.919" rx="9.02238" ry="16.0577" transform="rotate(-15.0909 33.7134 106.919)" fill="#363636"/>
<mask id="mask2_3451_610" style="mask-type:alpha" maskUnits="userSpaceOnUse" x="24" y="91" width="20" height="32">
<ellipse cx="33.7134" cy="106.919" rx="9.02238" ry="16.0577" transform="rotate(-15.0909 33.7134 106.919)" fill="#363636"/>
</mask>
<g mask="url(#mask2_3451_610)">
<ellipse cx="36.7317" cy="118.112" rx="9.02238" ry="4.46487" transform="rotate(-15.0909 36.7317 118.112)" fill="white"/>
</g>
<ellipse cx="9.01003" cy="16.0357" rx="9.01003" ry="16.0357" transform="matrix(-0.966837 -0.260709 -0.260709 0.966837 71.1628 93.7641)" fill="#363636"/>
<mask id="mask3_3451_610" style="mask-type:alpha" maskUnits="userSpaceOnUse" x="48" y="91" width="20" height="32">
<ellipse cx="9.01003" cy="16.0357" rx="9.01003" ry="16.0357" transform="matrix(-0.966837 -0.260709 -0.260709 0.966837 71.1628 93.7641)" fill="#363636"/>
</mask>
<g mask="url(#mask3_3451_610)">
<ellipse cx="9.01003" cy="4.45875" rx="9.01003" ry="4.45875" transform="matrix(-0.966837 -0.260709 -0.260709 0.966837 65.1263 116.15)" fill="white"/>
</g>
</svg>
