<svg preserveAspectRatio="none" width="100%" height="100%" overflow="visible" style="display: block;" viewBox="0 0 341.001 63.4429" fill="none" xmlns="http://www.w3.org/2000/svg">
<g id="Group 1000003329">
<path id="Arrow" d="M319.312 45.0889C317.414 47.3723 315.598 49.5598 313.781 51.7484C312.225 53.6171 310.669 55.483 309.114 57.346C308.605 57.9529 307.991 58.1405 307.299 57.8958C306.607 57.6511 306.195 57.0613 306.042 56.228C305.895 55.4172 306.153 54.752 306.625 54.1795C308.782 51.5892 310.938 48.9981 313.092 46.4063C314.689 44.4887 316.287 42.5722 317.887 40.6567C318.764 39.611 319.779 39.6056 320.652 40.6406C321.866 42.0781 323.071 43.5263 324.268 44.9854C324.404 45.1493 324.489 45.3724 324.585 45.5449L334.669 33.4204C334.526 33.4097 334.388 33.3913 334.249 33.3903C333.082 33.3903 331.915 33.4043 330.748 33.3816C329.977 33.3676 329.397 32.918 329.08 32.076C328.777 31.2718 328.878 30.4912 329.349 29.8055C329.518 29.5514 329.733 29.3473 329.978 29.209C330.224 29.0706 330.492 29.0018 330.763 29.0077C333.556 29.0002 336.356 28.9937 339.153 29.011C340.209 29.0174 340.991 29.9813 340.994 31.248C341.003 34.5902 341.003 37.9324 340.994 41.2745C340.994 42.5445 340.166 43.5385 339.162 43.5278C338.159 43.517 337.385 42.5682 337.367 41.295C337.35 39.9301 337.363 38.5641 337.363 37.1982V36.6321L337.2 36.5049C337.098 36.6971 336.985 36.8798 336.86 37.0515C333.289 41.3489 329.716 45.643 326.139 49.9339C325.209 51.0498 324.203 51.0519 323.276 49.9436C322.058 48.4875 320.842 47.0266 319.629 45.5611C319.525 45.435 319.441 45.2797 319.312 45.0889Z" fill="#D5D5D5"/>
<path id="Vector" d="M37.7782 44.1353C37.7782 45.4834 36.794 46.5394 35.6787 46.5394H33.5791L33.6251 58.5373C33.6251 58.7395 33.6119 58.9417 33.5923 59.1439V60.3497C33.5923 62.0049 32.4178 63.3455 30.9679 63.3455H29.9181C29.8459 63.3455 29.7738 63.3455 29.7016 63.338C29.6097 63.3455 29.5179 63.3455 29.426 63.3455H27.2937H25.7191C24.2691 63.3455 23.0947 62.0049 23.0947 60.3497V58.5523V53.7591C23.0947 52.4335 22.1565 51.3625 20.9952 51.3625H16.7961C15.6348 51.3625 14.6966 52.4335 14.6966 53.7591V58.5523V60.3497C14.6966 62.0049 13.5222 63.3455 12.0722 63.3455H10.4976H8.40463C8.30621 63.3455 8.2078 63.338 8.10938 63.3305C8.03065 63.338 7.95192 63.3455 7.87319 63.3455H6.82343C5.37345 63.3455 4.19903 62.0049 4.19903 60.3497V51.9616C4.19903 51.8942 4.19903 51.8194 4.20559 51.7519V46.5394H2.09952C0.918538 46.5394 0 45.4909 0 44.1353C0 43.4612 0.19683 42.8621 0.656099 42.3378L17.4785 25.5991C17.9377 25.0749 18.4626 25 18.9219 25C19.3812 25 19.906 25.1498 20.2997 25.5243L37.0565 42.3378C37.5813 42.8621 37.8438 43.4612 37.7782 44.1353Z" fill="#D5D5D5"/>
<g id="Group 1000003326">
<path id="Vector_2" fill-rule="evenodd" clip-rule="evenodd" d="M189.501 53.5148C189.499 53.6093 189.489 53.7035 189.473 53.7967C189.515 54.0107 189.509 54.2313 189.455 54.4426C189.401 54.6539 189.302 54.8507 189.163 55.019C189.024 55.1872 188.85 55.3227 188.653 55.4158C188.456 55.5088 188.24 55.5571 188.022 55.5572H160.422C160.099 55.5572 159.778 55.6209 159.479 55.7448C159.18 55.8686 158.909 56.0501 158.68 56.2789C158.451 56.5078 158.27 56.7794 158.146 57.0784C158.022 57.3774 157.958 57.6978 157.958 58.0215C157.958 58.3451 158.022 58.6655 158.146 58.9645C158.27 59.2635 158.451 59.5351 158.68 59.764C158.909 59.9928 159.18 60.1743 159.479 60.2982C159.778 60.422 160.099 60.4857 160.422 60.4857H188.022C188.415 60.4857 188.791 60.6415 189.068 60.9188C189.345 61.1961 189.501 61.5722 189.501 61.9643C189.501 62.3565 189.345 62.7325 189.068 63.0098C188.791 63.2871 188.415 63.4429 188.022 63.4429H160.422C158.985 63.4429 157.606 62.8717 156.589 61.855C155.572 60.8383 155.001 59.4593 155.001 58.0215V30.4215C155.001 28.9836 155.572 27.6046 156.589 26.5879C157.606 25.5712 158.985 25 160.422 25H186.84C188.31 25 189.501 26.1908 189.501 27.6615V53.5148ZM166.337 32.8857C165.945 32.8857 165.568 33.0415 165.291 33.3188C165.014 33.5961 164.858 33.9722 164.858 34.3643C164.858 34.7565 165.014 35.1325 165.291 35.4098C165.568 35.6871 165.945 35.8429 166.337 35.8429H178.165C178.557 35.8429 178.933 35.6871 179.211 35.4098C179.488 35.1325 179.644 34.7565 179.644 34.3643C179.644 33.9722 179.488 33.5961 179.211 33.3188C178.933 33.0415 178.557 32.8857 178.165 32.8857H166.337Z" fill="#D5D5D5"/>
<path id="Ellipse 3" d="M179.049 6.62702e-05C179.049 4.52581 175.904 8.19466 172.025 8.19466C168.146 8.19466 165.001 4.52581 165.001 6.62702e-05C172.025 2.50246e-05 168.146 2.16598e-05 172.025 2.16598e-05C175.904 2.16598e-05 172.025 -4.95526e-05 179.049 6.62702e-05Z" fill="#D5D5D5"/>
</g>
</g>
</svg>
