<svg preserveAspectRatio="none" width="100%" height="100%" overflow="visible" style="display: block;" viewBox="0 0 14.625 21" fill="none" xmlns="http://www.w3.org/2000/svg">
<g id="Layer_23">
<path id="Vector" d="M11.2463 2.0625L11.0925 1.2525C10.95 0.525 10.32 0 9.5775 0H5.0475C4.305 0 3.675 0.525 3.5325 1.2525L3.37875 2.0625H11.2463Z" fill="var(--fill-0, #85C9C9)"/>
<path id="Vector_2" d="M3.37875 18.9375L3.5325 19.7475C3.675 20.475 4.305 21 5.0475 21H9.5775C10.32 21 10.95 20.475 11.0925 19.7475L11.2463 18.9375H3.37875Z" fill="var(--fill-0, #85C9C9)"/>
<path id="Vector_3" d="M11.5575 3.1875H3.0675C1.37325 3.1875 0 4.56075 0 6.255V14.745C0 16.4392 1.37325 17.8125 3.0675 17.8125H11.5575C13.2517 17.8125 14.625 16.4392 14.625 14.745V6.255C14.625 4.56075 13.2517 3.1875 11.5575 3.1875ZM10.1437 12.6832C10.011 12.855 9.8115 12.9457 9.60975 12.9457C9.46575 12.9457 9.32025 12.8992 9.19725 12.8047L6.9 11.028C6.735 10.8998 6.63825 10.7025 6.63825 10.494V6.44175C6.63825 6.069 6.9405 5.76675 7.31325 5.76675C7.686 5.76675 7.98825 6.069 7.98825 6.44175V10.1632L10.0237 11.7375C10.3177 11.964 10.3717 12.3885 10.1437 12.6832Z" fill="var(--fill-0, #85C9C9)"/>
</g>
</svg>
