<svg preserveAspectRatio="none" width="100%" height="100%" overflow="visible" style="display: block;" viewBox="0 0 24 24" fill="none" xmlns="http://www.w3.org/2000/svg">
<g id="menu 1">
<path id="Vector" fill-rule="evenodd" clip-rule="evenodd" d="M20.6498 10.3607H13.4429C13.2157 10.3609 12.9978 10.4462 12.8371 10.5978C12.6764 10.7494 12.5861 10.9549 12.5859 11.1693V20.1201C12.5861 20.3345 12.6764 20.5401 12.8371 20.6917C12.9978 20.8433 13.2157 20.9285 13.4429 20.9287H20.6498C20.8771 20.9285 21.0949 20.8433 21.2556 20.6917C21.4163 20.5401 21.5066 20.3345 21.5068 20.1201V11.1693C21.5066 10.9549 21.4163 10.7494 21.2556 10.5978C21.0949 10.4462 20.8771 10.3609 20.6498 10.3607ZM2.50687 20.1201C2.50689 20.1201 2.50691 20.1201 2.50691 20.1202C2.50711 20.3345 2.59746 20.5401 2.75813 20.6917C2.91881 20.8433 3.13668 20.9285 3.36391 20.9287H10.5872C10.8144 20.9285 11.0323 20.8432 11.1929 20.6916C11.3536 20.54 11.444 20.3345 11.4442 20.1201V15.1326C11.4439 14.9182 11.3535 14.7127 11.1929 14.5611C11.0322 14.4096 10.8144 14.3243 10.5872 14.324H3.36384C3.13662 14.3242 2.91878 14.4095 2.75811 14.5611C2.59744 14.7127 2.50707 14.9182 2.50684 15.1326V20.1201C2.50684 20.1201 2.50685 20.1201 2.50687 20.1201ZM3.36391 13.4967H10.5709C10.7981 13.4965 11.016 13.4112 11.1767 13.2596C11.3373 13.108 11.4277 12.9025 11.4279 12.6881V3.7373C11.4277 3.52292 11.3373 3.31738 11.1767 3.16579C11.016 3.0142 10.7981 2.92893 10.5709 2.92871L3.36384 2.92871C3.13662 2.92893 2.91877 3.01418 2.7581 3.16578C2.59743 3.31737 2.50706 3.52292 2.50684 3.7373V12.6881C2.50705 12.9025 2.59741 13.108 2.75809 13.2596C2.91876 13.4112 3.13661 13.4965 3.36384 13.4967H3.36391ZM21.5068 3.7373C21.5066 3.52292 21.4162 3.31737 21.2555 3.16578C21.0949 3.01418 20.877 2.92893 20.6498 2.92871H13.4422C13.215 2.92898 12.9972 3.01426 12.8365 3.16584C12.6759 3.31742 12.5855 3.52294 12.5852 3.7373V8.72499C12.5854 8.93937 12.6758 9.14491 12.8365 9.2965C12.9971 9.44809 13.215 9.53335 13.4422 9.53359H20.6498C20.8771 9.5334 21.0949 9.44815 21.2556 9.29655C21.4163 9.14495 21.5066 8.93939 21.5068 8.72499L21.5068 3.7373Z" fill="var(--fill-0, #85C9C9)"/>
</g>
</svg>
