<svg width="256" height="256" viewBox="0 0 256 256" fill="none" xmlns="http://www.w3.org/2000/svg">
<defs>
<radialGradient id="bodyGradient" cx="0" cy="0" r="1" gradientUnits="userSpaceOnUse" gradientTransform="translate(128 128) rotate(90) scale(120)">
<stop offset="0%" stop-color="#86CECD"/>
<stop offset="100%" stop-color="#6BB5B4"/>
</radialGradient>
<radialGradient id="shadowGradient" cx="0" cy="0" r="1" gradientUnits="userSpaceOnUse" gradientTransform="translate(128 230) rotate(0) scale(100 20)">
<stop offset="0%" stop-color="#000000" stop-opacity="0.1"/>
<stop offset="100%" stop-color="#000000" stop-opacity="0"/>
</radialGradient>
</defs>

<!-- Soft shadow -->
<ellipse cx="128" cy="230" rx="90" ry="15" fill="url(#shadowGradient)"/>

<!-- Body -->
<path d="M128 32C75 32 32 75 32 128C32 181 75 224 128 224C181 224 224 181 224 128C224 75 181 32 128 32Z" fill="url(#bodyGradient)"/>

<!-- Highlight/Shine -->
<path d="M128 40C85 40 50 70 42 110C40 100 100 50 160 50C190 50 210 70 214 90C205 60 170 40 128 40Z" fill="white" fill-opacity="0.2"/>

<!-- Face: Calm -->
<!-- Eyes (Dots with shine) -->
<circle cx="95" cy="115" r="8" fill="#2C3E50"/>
<circle cx="98" cy="112" r="2.5" fill="white"/>
<circle cx="161" cy="115" r="8" fill="#2C3E50"/>
<circle cx="164" cy="112" r="2.5" fill="white"/>

<!-- Mouth (Happy curve) -->
<path d="M110 150C110 150 128 165 146 150" stroke="#2C3E50" stroke-width="4" stroke-linecap="round"/>

<!-- Cheeks -->
<circle cx="80" cy="135" r="8" fill="#FF9191" fill-opacity="0.4"/>
<circle cx="176" cy="135" r="8" fill="#FF9191" fill-opacity="0.4"/>

</svg>
